<svg width="32" height="32" viewBox="0 0 32 32" xmlns="http://www.w3.org/2000/svg">
  <defs>
    <linearGradient id="shieldGradient" x1="0%" y1="0%" x2="100%" y2="100%">
      <stop offset="0%" style="stop-color:#10b981;stop-opacity:1" />
      <stop offset="50%" style="stop-color:#059669;stop-opacity:1" />
      <stop offset="100%" style="stop-color:#047857;stop-opacity:1" />
    </linearGradient>
    <linearGradient id="bgGradient" x1="0%" y1="0%" x2="100%" y2="100%">
      <stop offset="0%" style="stop-color:#0f172a;stop-opacity:1" />
      <stop offset="50%" style="stop-color:#1e40af;stop-opacity:1" />
      <stop offset="100%" style="stop-color:#7c3aed;stop-opacity:1" />
    </linearGradient>
    <filter id="glow">
      <feGaussianBlur stdDeviation="1" result="coloredBlur"/>
      <feMerge> 
        <feMergeNode in="coloredBlur"/>
        <feMergeNode in="SourceGraphic"/>
      </feMerge>
    </filter>
  </defs>
  
  <!-- Background -->
  <rect width="32" height="32" rx="6" fill="url(#bgGradient)" />
  
  <!-- Shield shape -->
  <path d="M16 4 L24 8 L24 16 Q24 22 16 26 Q8 22 8 16 L8 8 Z" 
        fill="url(#shieldGradient)" 
        filter="url(#glow)" 
        stroke="#10b981" 
        stroke-width="0.5" />
  
  <!-- AI Circuit pattern -->
  <g stroke="#34d399" stroke-width="0.8" fill="none" opacity="0.6">
    <circle cx="16" cy="12" r="1.5" fill="#34d399" />
    <circle cx="12" cy="16" r="1" fill="#34d399" />
    <circle cx="20" cy="16" r="1" fill="#34d399" />
    <circle cx="16" cy="20" r="1" fill="#34d399" />
    
    <line x1="16" y1="12" x2="12" y2="16" />
    <line x1="16" y1="12" x2="20" y2="16" />
    <line x1="12" y1="16" x2="16" y2="20" />
    <line x1="20" y1="16" x2="16" y2="20" />
  </g>
  
  <!-- Checkmark for safety compliance -->
  <path d="M12 16 L15 19 L21 13" 
        stroke="#ffffff" 
        stroke-width="2" 
        fill="none" 
        stroke-linecap="round" 
        stroke-linejoin="round" 
        filter="url(#glow)" />
</svg>